<?xml version="1.0" encoding="UTF-8"?>
<svg width="1920px" height="1080px" viewBox="0 0 1920 1080" version="1.1" xmlns="http://www.w3.org/2000/svg" xmlns:xlink="http://www.w3.org/1999/xlink">
    <!-- Generator: Sketch 56.3 (81716) - https://sketch.com -->
    <title>wireframing</title>
    <desc>Created with Sketch.</desc>
    <defs>
        <linearGradient x1="0.109487385%" y1="50.0124825%" x2="100.000251%" y2="50.0124825%" id="linearGradient-1">
            <stop stop-color="#808080" stop-opacity="0.25" offset="0%"></stop>
            <stop stop-color="#808080" stop-opacity="0.12" offset="54%"></stop>
            <stop stop-color="#808080" stop-opacity="0.1" offset="100%"></stop>
        </linearGradient>
    </defs>
    <g id="wireframing" stroke="none" stroke-width="1" fill="none" fill-rule="evenodd">
        <path d="M0,0 L1920,0 L1920,1080 L0,1080 L0,0 Z" id="Rectangle-2" fill="#A86FE5" opacity="0.15"></path>
        <g id="undraw_user_flow_vr6w" transform="translate(502.000000, 215.000000)">
            <path d="M22.6882129,4.76996198 C22.6882129,4.76996198 204.342205,12.1844106 229.057034,4.76996198 C229.057034,4.76996198 215.463878,308.762357 220.406844,318.648289 C220.406844,318.648289 18.9809886,329.769962 4.15209125,318.648289 C-10.6768061,307.526616 22.6882129,4.76996198 22.6882129,4.76996198 Z" id="Path" stroke="#33313F" stroke-width="3" fill="#FFFFFF" fill-rule="nonzero"></path>
            <path d="M49.8745247,61.6140684 C49.8745247,61.6140684 133.904943,195.074144 162.326996,207.431559" id="Path" stroke="#33313F" stroke-width="3" fill="#FFFFFF" fill-rule="nonzero"></path>
            <path d="M162.326996,61.6140684 C162.326996,61.6140684 82.0038023,166.652091 69.6463878,202.488593" id="Path" stroke="#33313F" stroke-width="3" fill="#FFFFFF" fill-rule="nonzero"></path>
            <path d="M154.912548,258.096958 L57.2889734,258.096958 C49.8745247,258.096958 49.8745247,292.697719 49.8745247,292.697719 L154.912548,292.697719 L154.912548,258.096958 Z" id="Path" stroke="#33313F" stroke-width="3" fill="#FFFFFF" fill-rule="nonzero"></path>
            <path d="M363.752852,4.76996198 C363.752852,4.76996198 537.992395,-3.88022814 570.121673,4.76996198 C570.121673,4.76996198 556.528517,308.762357 561.471483,318.648289 C561.471483,318.648289 338.840304,336.059886 345.21673,318.648289 C358.809886,281.576046 363.752852,4.76996198 363.752852,4.76996198 Z" id="Path" stroke="#33313F" stroke-width="3" fill="#FFFFFF" fill-rule="nonzero"></path>
            <path d="M431.656844,27.9524715 C431.656844,27.9524715 470.434411,89.5541825 483.557985,95.2509506" id="Path" stroke="#33313F" stroke-width="3" fill="#FFFFFF" fill-rule="nonzero"></path>
            <path d="M483.557985,27.9524715 C483.557985,27.9524715 446.485741,76.4306084 440.776616,92.9771863" id="Path" stroke="#33313F" stroke-width="3" fill="#FFFFFF" fill-rule="nonzero"></path>
            <path d="M527.809886,134.522814 L396.821293,134.522814 C386.935361,134.522814 386.935361,169.123574 386.935361,169.123574 L527.809886,169.123574 L527.809886,134.522814 Z" id="Path" stroke="#33313F" stroke-width="3" fill="#FFFFFF" fill-rule="nonzero"></path>
            <path d="M509.928707,244.503802 L412.305133,244.503802 C404.890684,244.503802 404.890684,279.104563 404.890684,279.104563 L509.928707,279.104563 L509.928707,244.503802 Z" id="Path" stroke="#33313F" stroke-width="3" fill="#FFFFFF" fill-rule="nonzero"></path>
            <path d="M527.809886,185.188213 C537.757605,185.188213 408.412548,196.309886 396.821293,185.188213 C390.71673,179.343156 386.935361,219.788973 386.935361,219.788973 L527.809886,219.788973 L527.809886,185.188213 Z" id="Path" stroke="#33313F" stroke-width="3" fill="#FFFFFF" fill-rule="nonzero"></path>
            <polyline id="Path" stroke="#33313F" stroke-width="3" fill="#FFFFFF" fill-rule="nonzero" points="444.706274 261.186312 452.120722 268.60076 465.713878 250.064639"></polyline>
            <path d="M696.1673,7.24144487 C696.1673,7.24144487 869.171103,28.2490494 902.536122,7.24144487 C902.536122,7.24144487 888.942966,311.23384 893.885932,321.119772 C893.885932,321.119772 664.285171,333.98384 677.631179,321.119772 C710.996198,288.990494 696.1673,7.24144487 696.1673,7.24144487 Z" id="Path" stroke="#33313F" stroke-width="3" fill="#FFFFFF" fill-rule="nonzero"></path>
            <path d="M720.202471,60.9961977 C720.202471,60.9961977 745.127376,100.539924 753.56749,104.247148" id="Path" stroke="#33313F" stroke-width="3" fill="#FFFFFF" fill-rule="nonzero"></path>
            <path d="M753.56749,60.9961977 C753.56749,60.9961977 729.742395,92.2110266 726.121673,102.788973" id="Path" stroke="#33313F" stroke-width="3" fill="#FFFFFF" fill-rule="nonzero"></path>
            <path d="M862.695817,142.555133 L731.707224,142.555133 C721.821293,142.555133 721.821293,160.868821 721.821293,160.868821 L862.695817,160.868821 L862.695817,142.555133 Z" id="Path" stroke="#33313F" stroke-width="3" fill="#FFFFFF" fill-rule="nonzero"></path>
            <path d="M791.282319,196.927757 L859.507605,196.927757 C869.393536,196.927757 869.393536,215.241445 869.393536,215.241445 L869.690114,215.241445" id="Path" stroke="#33313F" stroke-width="3" fill="#FFFFFF" fill-rule="nonzero"></path>
            <path d="M862.695817,169.358365 C872.643536,169.358365 743.298479,175.240494 731.707224,169.358365 C725.602662,166.269011 721.821293,187.659696 721.821293,187.659696 L862.695817,187.659696 L862.695817,169.358365 Z" id="Path" stroke="#33313F" stroke-width="3" fill="#FFFFFF" fill-rule="nonzero"></path>
            <path d="M697.205323,30.4239544 C697.205323,30.4239544 888.992395,44.5979087 901.325095,35.1815589" id="Path" stroke="#33313F" stroke-width="3" fill="#FFFFFF" fill-rule="nonzero"></path>
            <path d="M877.191065,21.6625475 C879.810837,21.1064639 882.504753,21.8973384 885.161597,22.3051331 C887.818441,22.7129278 890.83365,22.6634981 892.761407,20.8098859" id="Path" stroke="#33313F" stroke-width="2" fill="#FFFFFF" fill-rule="nonzero"></path>
            <path d="M875.868821,26.5313688 C881.405899,27.5061332 887.039446,27.8172643 892.65019,27.4581749" id="Path" stroke="#33313F" stroke-width="2" fill="#FFFFFF" fill-rule="nonzero"></path>
            <path d="M875.844106,33.4391635 C880.592211,32.6328865 885.382222,32.0965374 890.191065,31.8326996" id="Path" stroke="#33313F" stroke-width="2" fill="#FFFFFF" fill-rule="nonzero"></path>
            <path d="M707.993346,24.2452471 C710.313395,25.3181441 712.853257,25.8303497 715.407795,25.7404943 C717.018135,25.9609604 718.654645,25.6065293 720.029468,24.7395437 C721.648289,23.4296578 721.784221,21.0323194 721.784221,18.9439163 C721.83113,18.3095302 721.738328,17.6725755 721.512357,17.0779468 C721.200363,16.5088117 720.744417,16.0315599 720.190114,15.6939163 C717.137833,13.5684411 711.465779,12.7034221 707.894487,14.1492395 C703.000951,16.1264259 703.791825,21.9591255 707.993346,24.2452471 Z" id="Path" stroke="#33313F" stroke-width="2" fill="#FFFFFF" fill-rule="nonzero"></path>
            <path d="M762.674905,53.2604563 C761.958175,62.404943 764.145437,71.4876426 765.61597,80.5456274 C767.471346,91.9803853 768.208034,103.568733 767.815589,115.146388 C748.315589,116.3327 728.790875,116.61692 709.241445,115.999049 C711.057985,116.060837 710.60076,74.6758555 710.773764,70.8697719 C710.996198,66.0009506 709.958175,57.6226236 715.605513,55.7937262 C721.537072,53.8536122 729.890684,55.0522814 736.118821,54.7557034 C744.96673,54.3437896 753.818758,53.8453739 762.674905,53.2604563 Z" id="Path" stroke="#33313F" stroke-width="3" fill="#FFFFFF" fill-rule="nonzero"></path>
            <path d="M257.479087,146.880228 C257.479087,146.880228 305.673004,144.408745 314.323194,146.880228" id="Path" stroke="#33313F" stroke-width="3"></path>
            <path d="M314.323194,120.929658 C314.323194,120.929658 335.330798,141.937262 335.330798,146.880228 C335.330798,151.823194 308.144487,169.123574 308.144487,169.123574" id="Path" stroke="#33313F" stroke-width="3"></path>
            <path d="M591.129278,146.880228 C591.129278,146.880228 639.323194,144.408745 647.973384,146.880228" id="Path" stroke="#33313F" stroke-width="3"></path>
            <path d="M647.973384,120.929658 C647.973384,120.929658 668.980989,141.937262 668.980989,146.880228 C668.980989,151.823194 641.794677,169.123574 641.794677,169.123574" id="Path" stroke="#33313F" stroke-width="3"></path>
            <path d="M913.324144,277.745247 C913.287501,276.251609 913.101209,274.765407 912.768061,273.308935 C911.643536,269.144487 909.147338,264.090304 905.007605,262.829848 C900.751006,261.522809 896.639295,259.783717 892.736692,257.639734 C891.98289,244.392586 895.035171,230.836502 891.711027,217.997148 C890.475285,213.301331 888.448669,208.803232 887.892586,203.98384 C887.212928,198.015209 888.856464,191.626426 886.471483,186.115019 C884.593156,181.777567 880.465779,178.70057 876.01711,177.094106 C871.568441,175.487643 866.798479,175.06749 862.090304,174.622624 C856.158745,174.128327 836.955323,171.854563 830.269962,177.168251 L830.269962,177.168251 C829.805181,177.523668 829.389637,177.939211 829.034221,178.403992 L829.034221,178.403992 C828.879724,178.605825 828.743267,178.820848 828.626426,179.046578 C828.630204,179.079423 828.630204,179.112592 828.626426,179.145437 C828.500375,179.406776 828.388985,179.674935 828.292776,179.948669 L828.292776,179.948669 C828.196271,180.246057 828.130029,180.552426 828.095057,180.863118 C828.088275,180.965985 828.088275,181.069186 828.095057,181.172053 C828.082415,181.390185 828.082415,181.608865 828.095057,181.826996 L828.095057,182.148289 C828.095057,182.38308 828.095057,182.605513 828.095057,182.827947 C828.095057,183.05038 828.095057,183.013308 828.095057,183.09981 C828.181559,184.19962 828.354563,185.324144 828.354563,186.423954 C828.367088,186.971543 828.317339,187.51878 828.206274,188.055133 C827.792043,189.507729 827.09492,190.86418 826.154943,192.046578 L826.154943,192.046578 L825.93251,192.367871 L825.524715,192.961027 L825.203422,193.467681 L824.931559,193.912548 C824.807985,194.122624 824.709125,194.3327 824.597909,194.555133 L824.412548,194.901141 C824.26328,195.241662 824.139369,195.592744 824.041825,195.951521 C823.77691,197.027019 823.77691,198.150737 824.041825,199.226236 C824.37575,200.61403 824.944115,201.934642 825.722433,203.131179 C826.031369,203.637833 826.377376,204.132129 826.723384,204.626426 C827.069392,205.120722 827.291825,205.404943 827.588403,205.788023 C827.416232,206.937667 827.325385,208.098025 827.31654,209.260456 C827.317152,217.100187 830.921363,224.50454 837.091255,229.341255 C837.574227,234.560176 837.520396,239.814882 836.930608,245.022814 C836.807034,246.122624 836.68346,247.210076 836.535171,248.297529 C836.386882,249.384981 836.263308,250.114068 836.127376,251.01616 C834.314093,251.270918 832.467076,251.127542 830.714829,250.596008 C829.908233,250.235771 829.083269,249.91816 828.243346,249.644487 C824.634981,248.754753 820.964829,252.338403 817.418251,251.250951 C817.418251,251.411597 817.307034,251.572243 817.257605,251.745247 C816.512726,251.287984 815.65992,251.036406 814.786122,251.01616 C812.685361,250.9173 810.955323,249.384981 809.423004,247.939163 L804.727186,243.502852 C804.417043,243.234465 804.142907,242.9271 803.911597,242.588403 C803.655184,242.109365 803.464008,241.598177 803.343156,241.068441 C802.344345,238.568711 800.784199,236.332079 798.78327,234.531369 C798.428614,234.08709 797.958249,233.749282 797.423954,233.555133 C797.223806,233.518197 797.018589,233.518197 796.818441,233.555133 C796.68251,233.382129 796.558935,233.209125 796.410646,233.048479 C796.076996,232.690114 795.730989,232.344106 795.372624,232.022814 C793.135932,229.946768 792.901141,228.1673 790.948669,225.844106 C789.246982,223.6302 787.706577,221.296879 786.339354,218.862167 C786.16635,217.626426 785.943916,216.242395 785.672053,214.88308 C785.054713,211.803353 784.152873,208.787568 782.978137,205.874525 L784.671103,204.020913 L784.671103,202.179658 L787.686312,198.657795 L787.476236,198.472433 L791.18346,194.987643 L787.476236,194.851711 L785.746198,197.249049 L785.610266,197.125475 L782.520913,200.214829 L780.358365,200.461977 L780.074144,200.758555 C778.282319,198.089354 776.36692,196.631179 774.661597,196.977186 C771.782319,197.570342 770.348859,203.155894 770.806084,210.459125 L762.242395,219.418251 L761.278517,220.431559 L756.854563,226.103612 L760.326996,229.440114 L765.653042,224.497148 L766.505703,223.570342 L771.807034,217.824144 C771.807034,218.009506 771.893536,218.194867 771.930608,218.380228 C771.760052,219.259998 771.669063,220.153339 771.658745,221.04943 C771.658745,222.09981 772.634981,222.853612 773.129278,223.792776 C773.951643,225.042996 774.38194,226.510308 774.365019,228.006654 C774.365019,228.525665 774.142586,229.032319 774.130228,229.563688 C774.190561,230.72028 774.590278,231.833472 775.279468,232.764259 C777.347275,236.224335 779.406844,239.684411 781.458175,243.144487 C781.878327,243.873574 782.323194,244.602662 782.693916,245.319392 C782.697998,245.356352 782.697998,245.393648 782.693916,245.430608 C783.084726,246.185566 783.65296,246.834371 784.34981,247.321293 C784.591995,249.924412 785.281783,252.466177 786.388783,254.834601 C786.611217,255.291825 786.846008,255.749049 787.093156,256.193916 C788.750357,258.92044 790.702188,261.456577 792.913498,263.756654 L795.86692,267.056084 C798.758555,270.306084 801.662548,273.543726 804.813688,276.546578 C805.945503,277.744487 807.312869,278.695332 808.829848,279.339354 C810.331332,279.951672 812.046392,279.705989 813.315589,278.696768 C813.315589,280.229087 813.315589,281.761407 813.315589,283.281369 C814.198894,283.435109 814.980533,283.944291 815.478137,284.690114 C815.808381,285.566838 815.731392,286.545049 815.268061,287.359316 C812.685361,294.019962 810.065589,300.730038 806.123574,306.711027 C808.898826,308.34586 811.470616,310.303739 813.785171,312.543726 C815.296208,314.210467 816.637433,316.023604 817.788973,317.956274 C817.887833,318.858365 817.974335,319.772814 818.036122,320.674905 C818.95057,335.404943 813.253802,350.023764 808.15019,364.061787 C806.692015,368.028517 805.073194,372.205323 805.209125,376.3327 C804.238477,376.936896 803.309574,377.605707 802.428707,378.334601 C803.442015,380.96673 803.046578,383.277567 802.947719,386.156844 C802.90643,387.854059 802.554617,389.529358 801.909696,391.09981 C801.427757,392.19962 800.673954,393.225285 800.142586,394.275665 C796.942015,399.923004 796.225285,406.63308 795.5827,413.071293 C795.19962,416.976236 796.719582,421.721483 794.940114,425.206274 C791.90019,431.19962 789.193916,437.563688 788.69962,444.211977 C788.682886,445.711111 788.496335,447.203521 788.143536,448.660646 C787.760456,449.896388 787.068441,450.946768 786.722433,452.157795 C786.369254,453.780852 786.289897,455.451534 786.487643,457.10076 C786.720309,463.024986 785.835771,468.94007 783.880228,474.537072 C782.335551,478.961027 780.642586,483.681559 781.853612,488.21673 C778.869967,491.341869 777.028211,495.382411 776.626426,499.684411 C776.590405,500.786115 776.453907,501.882234 776.218631,502.959125 C775.842949,504.06316 775.349953,505.123724 774.748099,506.122624 C772.261159,510.653679 771.092525,515.790532 771.374525,520.951521 C767.6673,525.968631 765.826046,532.184411 764.726236,538.35076 C763.626426,544.51711 763.132129,550.794677 761.723384,556.886882 C759.857414,564.956274 756.459125,573.09981 755.779468,581.342205 C751.775665,583.912548 750.057985,588.867871 749.279468,593.551331 C748.500951,598.234791 748.389734,603.140684 746.437262,607.478137 C745.423954,609.727186 743.965779,611.741445 743.001901,614.027567 C742.317766,615.855873 741.816893,617.747602 741.506654,619.674905 C740.913498,622.702471 740.394487,626.051331 741.135932,628.942966 C740.088911,630.057881 738.865686,630.993043 737.515209,631.711027 C737.70057,630.944867 737.873574,630.16635 737.997148,629.387833 C734.808935,632.291825 729.038023,631.278517 726.480038,634.750951 C724.904799,637.081031 725.450244,640.23916 727.715779,641.905894 C728.517336,642.390068 729.382429,642.760229 730.286122,643.005703 C736.403042,644.970532 742.81654,646.972433 749.155894,645.922053 C749.907241,645.83496 750.633863,645.599753 751.293726,645.230038 C752.125828,644.62815 752.806878,643.841346 753.28327,642.931559 L756.137833,638.408745 C758.413563,639.09214 760.72865,639.636867 763.070342,640.039924 C763.301014,642.008872 763.46166,643.986058 763.552281,645.971483 C764.788023,646.218631 766.443916,646.280418 767.024715,645.143536 C767.204204,644.709741 767.280354,644.240149 767.247148,643.771863 C767.247148,642.882129 767.358365,641.720532 767.444867,640.534221 L767.692015,640.534221 C771.463243,640.68253 775.214649,639.919532 778.628327,638.309886 C777.293726,627.373574 781.655894,616.672053 785.44962,606.31654 C789.441065,595.4173 792.864068,584.307985 796.29943,573.211027 C798.770913,565.413498 801.514259,557.838403 803.923954,550.028517 C806.988593,540.142586 810.049113,530.256654 813.105513,520.370722 C814.452471,516.020913 815.787072,511.720532 817.331749,507.395437 C820.556015,498.640922 824.379383,490.118858 828.774715,481.889734 C830.010456,479.56654 831.246198,477.255703 832.271863,474.821293 C833.507605,471.867871 834.384981,468.778517 835.361217,465.738593 C837.522751,459.472572 840.12003,453.365456 843.13403,447.461977 L843.356464,447.004753 C844.357414,451.095057 845.370722,455.259506 846.025665,459.362167 C846.935114,464.407231 847.006092,469.567764 846.235741,474.635932 C845.642586,478.08365 844.518061,481.494297 844.66635,484.979087 C844.851711,489.823194 847.422053,494.197719 848.694867,498.868821 C849.513396,502.355881 849.981185,505.91605 850.091255,509.496198 C850.424905,515.044677 853.452471,521.285171 851.326996,526.438213 C844.728137,542.762357 847.928707,561.19962 844.147338,578.339354 C842.219582,587.137833 836.275665,595.4173 836.73289,604.413498 C837.062421,610.798162 837.622624,617.16635 838.413498,623.518061 C838.552077,625.45729 839.007076,627.360771 839.760456,629.153042 C840.265564,630.106699 840.831036,631.027138 841.453422,631.908745 C840.922053,632.131179 840.452471,632.687262 840.069392,633.861217 C838.906481,637.032884 840.034484,640.589652 842.812738,642.511407 C843.926162,643.109103 845.12743,643.52621 846.371673,643.747148 C848.053279,644.217873 849.790832,644.458969 851.537072,644.463878 C852.081432,644.437289 852.622778,644.367038 853.155894,644.253802 C855.068758,645.059929 857.024128,645.761222 859.013308,646.354563 C859.013308,646.865336 859.062738,647.37199 859.161597,647.874525 C859.161662,648.414163 859.401651,648.925838 859.81654,649.270913 C860.121389,649.426483 860.464633,649.490842 860.805133,649.456274 L867.515209,649.456274 C867.515209,648.90019 867.515209,648.331749 867.515209,647.775665 C869.070539,647.940601 870.622144,647.432395 871.778517,646.379278 C872.379741,645.631776 872.802392,644.75689 873.014259,643.821293 C874.843156,637.609632 876.663815,631.402091 878.476236,625.198669 C879.309272,622.575593 879.949444,619.895129 880.391635,617.178707 C881.170338,612.808823 881.415161,608.360506 881.120722,603.931559 C878.748099,581.156844 883.987643,558.307985 882.282319,535.471483 C881.249819,521.749745 881.955665,507.952528 884.38308,494.407795 C884.939163,491.343156 885.618821,488.229087 885.86597,485.176806 C886.397338,479.418251 885.742395,473.597909 886.137833,467.876426 C886.286122,465.874525 886.557985,463.884981 886.805133,461.895437 C888.577326,449.548091 889.543249,437.098408 889.696768,424.625475 C889.669769,420.495716 889.41813,416.370482 888.942966,412.268061 C890.222355,411.926995 891.384473,411.243396 892.304183,410.290875 C893.41635,408.845057 893.132129,406.843156 893.119772,405.014259 C893.119772,400.639734 894.961027,396.5 896.431559,392.372624 C898.33064,386.702668 899.894495,380.925894 901.115019,375.072243 C902.390104,370.333698 903.087185,365.458284 903.191065,360.552281 C903.191065,360.057985 903.191065,359.563688 903.11692,359.057034 C903.58091,358.736056 903.965519,358.313409 904.241445,357.821293 C904.568242,357.098708 904.768861,356.325489 904.834601,355.535171 C905.291825,352.371673 905.736692,349.220532 906.193916,346.057034 C906.515209,343.791508 906.840621,341.525982 907.170152,339.260456 C908.480038,330.132446 909.785805,320.996198 911.087452,311.851711 C911.43346,309.46673 911.76711,307.094106 912.113118,304.709125 L913.126426,297.628327 C913.25,296.788023 913.361217,295.947719 913.460076,295.095057 C916.524715,290.213878 913.63308,283.479087 913.324144,277.745247 Z M880.589354,380.410646 C879.118821,376.962928 877.759506,373.41635 878.117871,369.672053 L877.994297,369.672053 C878.309347,368.521688 878.248734,367.300766 877.821293,366.187262 C877.438213,365.272814 876.78327,364.506654 876.375475,363.61692 C875.93605,362.511881 875.709636,361.333689 875.708175,360.144487 C875.403381,352.633342 875.99243,345.112592 877.462928,337.740494 C877.623574,336.863118 877.796578,335.998099 877.969582,335.120722 C878.481596,334.822338 878.95125,334.45659 879.36597,334.03327 C880.014841,333.291454 880.551878,332.458838 880.960076,331.561787 C882.352345,328.760773 883.637516,325.90621 884.815589,322.998099 C885.198669,322.046578 885.754753,320.971483 886.706274,320.736692 C886.508555,327.965779 887.25,335.343156 884.234791,341.867871 C883.673606,342.91891 883.257887,344.041352 882.999049,345.204373 C882.727186,347.03327 883.493346,348.911597 883.221483,350.740494 C883.085551,351.679658 882.677757,352.569392 882.504753,353.496198 C882.262206,354.436998 882.540154,355.435725 883.23384,356.11597 C883.391077,356.237023 883.56617,356.332907 883.752852,356.40019 C883.678707,356.894487 883.61692,357.401141 883.579848,357.88308 C883.468631,358.896388 883.431559,359.847909 883.369772,360.441065 C883.081549,363.459571 882.966025,366.492079 883.023764,369.523764 C883.023764,372.798479 883.159696,376.085551 883.097909,379.409696 C883.148749,380.367849 882.988443,381.32547 882.628327,382.214829 C882.384279,382.674897 882.067091,383.09225 881.689163,383.45057 C881.343156,382.35076 880.947719,381.374525 880.589354,380.410646 Z" id="Shape" fill="url(#linearGradient-1)" fill-rule="nonzero"></path>
            <polygon id="Path" fill="#33313F" fill-rule="nonzero" points="787.179658 200.363118 791.331749 196.495247 787.624525 196.359316 785.684411 199.325095"></polygon>
            <polygon id="Path" fill="#65617D" fill-rule="nonzero" points="757.311787 227.45057 761.711027 221.803232 762.687262 220.789924 776.156844 206.690114 780.741445 201.88308 782.891635 201.635932 785.980989 198.558935 787.797529 200.153042 784.794677 203.662548 784.856464 205.503802 780.160646 210.595057 766.938213 224.942015 766.085551 225.856464 760.771863 230.774715"></polygon>
            <polygon id="Path" fill="#33313F" fill-rule="nonzero" points="762.687262 220.789924 776.156844 206.690114 780.160646 210.595057 766.938213 224.942015"></polygon>
            <ellipse id="Oval" fill="#FBBEBE" fill-rule="nonzero" transform="translate(779.033196, 217.696683) rotate(-11.580000) translate(-779.033196, -217.696683) " cx="779.033196" cy="217.696683" rx="6.96958175" ry="19.7347909"></ellipse>
            <path d="M840.576046,634.231939 C839.448755,637.379396 840.567308,640.891955 843.307034,642.807985 C844.421863,643.402473 845.622612,643.819399 846.86597,644.043726 C848.539168,644.514328 850.268542,644.755442 852.006654,644.760456 C854.156844,644.64924 856.208175,643.821293 858.33365,643.524715 C858.5821,643.47129 858.841516,643.510862 859.062738,643.635932 C859.277437,643.865016 859.381267,644.176506 859.346958,644.488593 C859.369452,645.707861 859.460215,646.924913 859.618821,648.13403 C859.556131,648.577867 859.710318,649.024818 860.033332,649.335596 C860.356345,649.646374 860.808914,649.783196 861.25,649.703422 L867.935361,649.703422 C868.092243,643.817583 867.43943,637.938107 865.995247,632.230038 C865.904588,631.792215 865.737248,631.373864 865.500951,630.994297 C864.942314,630.366326 864.197588,629.933346 863.375475,629.758555 C861.733503,629.077511 859.960837,628.769405 858.185361,628.856464 C856.035171,629.128327 854.218631,630.537072 852.377376,631.698669 C850.536122,632.860266 848.027567,633.885932 845.790875,633.280418 C843.554183,632.674905 841.712928,630.796578 840.576046,634.231939 Z" id="Path" fill="#3F3D56" fill-rule="nonzero"></path>
            <path d="M742.186312,628.807034 C740.307781,630.81984 738.00231,632.386378 735.439163,633.391635 L734.289924,633.947719 C734.129582,633.996187 733.99579,634.107681 733.919202,634.256654 C733.871749,634.449331 733.912509,634.653133 734.030418,634.812738 C735.979627,637.812391 739.679827,639.158377 743.10076,638.112167 C743.840262,637.928023 744.526048,637.57243 745.102662,637.074144 C746.040606,635.949624 746.579464,634.545985 746.634981,633.0827 C746.995935,631.578982 746.931758,630.004524 746.44962,628.535171 C744.769011,624.654943 744.138783,626.409696 742.186312,628.807034 Z" id="Path" fill="#FBBEBE" fill-rule="nonzero"></path>
            <path d="M767.914449,644.031369 C767.953911,644.499916 767.877522,644.970976 767.692015,645.403042 C767.123574,646.539924 765.492395,646.465779 764.231939,646.230989 C764.045881,642.034422 763.541902,637.858003 762.724335,633.737643 C760.326996,633.626426 758.584601,635.912548 757.311787,637.939163 L754,643.203422 C753.519475,644.106966 752.839004,644.888874 752.010456,645.489544 C751.354094,645.857123 750.631941,646.092243 749.884981,646.181559 C743.557985,647.219582 737.169202,645.230038 731.064639,643.265209 C730.166432,643.020912 729.305812,642.655045 728.506654,642.177757 C726.236866,640.519165 725.690285,637.359924 727.270913,635.035171 C729.81654,631.575095 735.575095,632.563688 738.750951,629.696768 C738.423975,631.715239 737.87699,633.691845 737.119772,635.591255 C741.395437,634.948669 744.25,631.043726 747.697719,628.436312 C748.553924,627.691143 749.595815,627.191548 750.712928,626.990494 C751.546512,626.925479 752.38489,627.0177 753.184411,627.262357 C757.146657,628.257401 760.852963,630.081073 764.058935,632.613118 C765.356464,633.638783 767.38308,635.084601 767.951521,636.66635 C768.557034,638.557034 767.902091,642.01711 767.914449,644.031369 Z" id="Path" fill="#3F3D56" fill-rule="nonzero"></path>
            <circle id="Oval" fill="#FBBEBE" fill-rule="nonzero" cx="852.921103" cy="210.768061" r="25.5304183"></circle>
            <path d="M903.215779,361.51616 C903.11277,366.405981 902.41564,371.265143 901.139734,375.986692 C899.936292,381.841961 898.380548,387.619258 896.480989,393.287072 C895.010456,397.402091 893.156844,401.529468 893.169202,405.891635 C893.169202,407.708175 893.465779,409.710076 892.36597,411.155894 C891.367512,412.158063 890.116336,412.87119 888.745247,413.219582 C887.365793,413.586325 886.242279,414.586023 885.717681,415.913498 C884.55141,414.186264 883.678742,412.278086 883.134981,410.26616 C880.927123,403.47782 878.867554,396.652408 876.956274,389.789924 C876.59908,388.989995 876.659178,388.065399 877.11692,387.318441 C877.432055,387.041334 877.802841,386.834874 878.204373,386.712928 C879.467496,386.191402 880.623688,385.441553 881.615019,384.500951 C882.085061,384.090224 882.474747,383.595785 882.764259,383.042776 C883.124374,382.153417 883.284681,381.195796 883.23384,380.237643 C883.23384,376.975285 883.23384,373.70057 883.159696,370.438213 C883.103782,367.415042 883.215169,364.391093 883.493346,361.380228 C883.493346,360.774715 883.604563,359.835551 883.703422,358.822243 C883.888783,356.869772 884.259506,354.63308 885.322243,353.879278 C886.879278,352.81654 891.575095,354.237643 893.36692,354.472433 C896.431559,354.904943 899.48384,355.39924 902.523764,355.980038 C902.959164,357.794014 903.191266,359.650823 903.215779,361.51616 Z" id="Path" fill="#ED78A1" fill-rule="nonzero"></path>
            <path d="M800.117871,239.363118 C799.129278,241.340304 796.756654,242.279468 794.927757,243.539924 L788.662548,247.840304 C787.816856,248.594351 786.703802,248.977241 785.573194,248.903042 C784.543193,248.522684 783.710093,247.743044 783.262357,246.740494 L783.188213,246.629278 L781.952471,244.46673 L775.773764,234.111217 C775.09033,233.177363 774.691249,232.065944 774.624525,230.910646 C774.624525,230.391635 774.809886,229.884981 774.871673,229.36597 C774.878053,227.874957 774.448532,226.414585 773.635932,225.164449 C773.141635,224.225285 772.140684,223.471483 772.177757,222.43346 C772.124324,221.065046 772.360128,219.70075 772.869772,218.429658 C773.517102,217.259503 774.442234,216.266472 775.563688,215.538023 C776.144487,215.117871 776.79943,214.722433 777.355513,214.302281 C777.688508,214.081975 778.05609,213.91907 778.442966,213.820342 C779.456274,213.610266 780.469582,214.45057 781.507605,214.487643 C785.980989,217.478137 787.686312,223.137833 791.208175,227.228137 C793.185361,229.538973 793.38308,231.318441 795.619772,233.406844 C795.982939,233.72677 796.325511,234.069342 796.645437,234.43251 C797.098195,234.909004 797.47722,235.450469 797.769962,236.038973 C798.165399,237.089354 800.636882,238.34981 800.117871,239.363118 Z" id="Path" fill="#ED78A1" fill-rule="nonzero"></path>
            <path d="M843.937262,236.372624 C845.778517,240.265209 847.211977,244.540875 846.680608,248.81654 C846.574368,249.973575 846.211301,251.092327 845.617871,252.091255 C843.838403,254.822243 840.106464,255.304183 836.844106,255.477186 C835.465227,255.365764 834.099099,255.810757 833.05038,256.712928 C832.14842,258.008318 832.245272,259.751654 833.285171,260.939163 C834.321819,262.063057 835.621074,262.912244 837.06654,263.410646 C842.207224,265.684411 847.743346,267.55038 853.341255,267.019011 C855.936312,266.771863 858.457224,266.030418 861.039924,265.647338 C863.839228,265.350104 866.652656,265.20572 869.467681,265.214829 C872.828897,265.091255 876.177757,264.757605 879.526616,264.423954 L888.386882,263.546578 C888.872215,263.555885 889.343612,263.384067 889.709125,263.064639 C890.376426,262.298479 889.523764,261.173954 888.720532,260.593156 C884,257.096008 878.006654,254.711027 875.337452,249.471483 C874.101711,247 873.706274,244.071293 872.791825,241.389734 C871.877376,238.708175 870.419202,236.323194 869.863118,233.592205 C869.559675,231.211447 869.42341,228.812354 869.455323,226.412548 C869.494987,223.987042 868.611542,221.637079 866.98384,219.838403 C865.229087,218.194867 862.671103,217.774715 860.261407,217.663498 C854.354563,217.41635 848.076996,218.825095 843.875475,222.989544 C842.750951,224.114068 841.79943,225.39924 840.625475,226.474335 C839.451521,227.54943 837.894487,227.784221 838.660646,229.118821 C839.426806,230.453422 840.922053,231.269011 841.737643,232.455323 C842.57587,233.699277 843.311503,235.009365 843.937262,236.372624 L843.937262,236.372624 Z" id="Path" fill="#FBBEBE" fill-rule="nonzero"></path>
            <path d="M886.768061,300.09981 C885.01811,304.164282 883.532135,308.337393 882.319392,312.593156 C881.355513,316.423954 881.553232,320.526616 880.663498,324.369772 C879.576046,329.139734 878.488593,333.946768 877.611217,338.76616 C876.140265,346.117332 875.551189,353.617688 875.856464,361.108365 C875.859185,362.293439 876.085582,363.467349 876.523764,364.568441 C876.931559,365.458175 877.598859,366.224335 877.969582,367.126426 C878.563574,368.746956 878.442314,370.543387 877.635932,372.069392 C877.000506,373.486966 876.140962,374.792972 875.090304,375.937262 C863.560837,379.372624 851.252852,378.235741 839.253802,378.964829 C828.132129,379.644487 817.010456,381.918251 806.111217,380.015209 C804.875475,375.072243 806.926806,369.906844 808.706274,365.087452 C813.822243,351.086502 819.506654,336.504753 818.592205,321.836502 C818.492173,320.129456 818.294128,318.429569 817.999049,316.745247 C816.219582,306.352662 818.159696,295.589354 821.286122,285.505703 C823.238593,279.240494 823.152091,272.542776 822.694867,266.005703 C822.474683,263.887134 822.445732,261.75304 822.608365,259.629278 C822.796122,257.458522 823.602381,255.387123 824.931559,253.660646 L825.11692,253.401141 C825.252852,253.191065 825.660646,253.314639 826.031369,253.401141 C826.229087,253.483523 826.451521,253.483523 826.64924,253.401141 C826.685258,253.359799 826.732465,253.329757 826.785171,253.314639 C826.895321,253.247959 827.033386,253.247959 827.143536,253.314639 C827.427757,253.5 827.576046,254.080798 828.193916,254.192015 C829.106682,254.334064 830.026693,254.424828 830.94962,254.463878 C832.059498,254.496121 833.162181,254.653647 834.236692,254.93346 L834.384981,254.93346 C835.992218,255.199193 837.640384,255.059014 839.179658,254.525665 C840.203037,254.269102 841.190854,253.887257 842.120722,253.388783 C842.878896,253.083165 843.654681,252.823194 844.443916,252.610266 C845.580798,251.918251 845.33365,248.730038 845.568441,247.43251 C845.694137,246.119349 846.001903,244.83006 846.48289,243.601711 C847.622689,241.758477 849.606157,240.604543 851.771863,240.524715 C853.904149,240.461694 856.036363,240.652514 858.123574,241.093156 C862.720532,241.748099 867.441065,241.624525 871.976236,242.687262 C874.25,243.218631 876.721483,244.034221 878.822243,242.996198 C879.378327,243.119772 879.464829,243.626426 879.464829,244.231939 C879.422395,244.80874 879.306109,245.37771 879.118821,245.924905 C878.340304,249.335551 881.021863,252.461977 883.480989,254.945817 C884.547256,256.112575 885.800076,257.09395 887.188213,257.84981 C888.423954,258.418251 889.659696,258.653042 890.895437,259.270913 C891.901375,259.797717 892.753063,260.577012 893.36692,261.532319 C894.086481,262.617378 894.566714,263.843236 894.775665,265.128327 C895.01148,267.515978 894.844388,269.926282 894.281369,272.258555 C892.730635,281.770414 890.213155,291.099168 886.768061,300.09981 Z" id="Path" fill="#ED78A1" fill-rule="nonzero"></path>
            <path d="M894.281369,272.258555 C892.730635,281.770414 890.213155,291.099168 886.768061,300.09981 C885.01811,304.164282 883.532135,308.337393 882.319392,312.593156 C881.355513,316.423954 881.553232,320.526616 880.663498,324.369772 C879.576046,329.139734 878.488593,333.946768 877.611217,338.76616 C877.351711,338.914449 877.092205,339.038023 876.820342,339.161597 C875.282682,339.897983 873.653588,340.425776 871.976236,340.730989 C868.959217,341.089236 865.905373,340.989247 862.918251,340.434411 L845.247148,338.123574 C838.203422,337.184411 830.702471,336.035171 825.475285,331.265209 C822.58365,328.645437 820.668251,325.185361 818.592205,321.836502 C818.492173,320.129456 818.294128,318.429569 817.999049,316.745247 C816.219582,306.352662 818.159696,295.589354 821.286122,285.505703 C823.238593,279.240494 823.152091,272.542776 822.694867,266.005703 C822.474683,263.887134 822.445732,261.75304 822.608365,259.629278 C822.796122,257.458522 823.602381,255.387123 824.931559,253.660646 C825.292629,253.552177 825.659895,253.465518 826.031369,253.401141 L826.031369,253.401141 C826.280202,253.354041 826.532137,253.325131 826.785171,253.314639 L827.143536,253.314639 C827.559795,253.316166 827.974475,253.365928 828.379278,253.462928 C829.207224,253.673004 829.973384,254.117871 830.788973,254.414449 L830.937262,254.414449 C831.998318,254.756584 833.109923,254.915385 834.224335,254.88403 C835.855513,254.88403 837.536122,254.612167 839.1673,254.513308 C841.180929,254.19297 843.243793,254.558541 845.024715,255.551331 C846.17615,256.476032 847.265925,257.474992 848.287072,258.541825 C849.533862,259.504138 850.927499,260.259372 852.414449,260.778517 C863.047962,264.840671 874.847716,264.587915 885.297529,260.074144 C886.305652,259.513471 887.443557,259.22793 888.596958,259.246198 C889.452293,259.412397 890.264183,259.753138 890.981939,260.247148 C891.711027,260.679658 892.452471,261.09981 893.193916,261.48289 C893.913477,262.567948 894.39371,263.793806 894.602662,265.078897 C894.900769,267.473128 894.792142,269.900522 894.281369,272.258555 L894.281369,272.258555 Z" id="Path" fill="#000000" fill-rule="nonzero" opacity="0.1"></path>
            <path d="M886.748555,321.797437 C885.817018,322.042864 885.271679,323.128441 884.889734,324.060837 C883.728137,326.952471 882.442966,329.807034 881.058935,332.59981 C880.650119,333.496522 880.113137,334.329052 879.464829,335.071293 C878.686489,335.828256 877.772602,336.431924 876.770913,336.85076 C875.233252,337.587146 873.604158,338.11494 871.926806,338.420152 C868.909788,338.7784 865.855943,338.67841 862.868821,338.123574 L845.222433,335.701521 C838.228137,334.75 830.714829,333.60076 825.45057,328.830798 C820.779468,324.604563 818.66635,318.203422 814.328897,313.631179 C812.02341,311.391172 809.459792,309.433199 806.692015,307.798479 C810.621673,301.842205 813.229087,295.144487 815.811787,288.496198 C816.269185,287.689065 816.346093,286.720935 816.021863,285.851711 C815.524259,285.105888 814.74262,284.596706 813.859316,284.442966 C813.780302,282.927332 813.768094,281.411699 813.786286,279.898492 C812.527109,280.909039 810.814728,281.162555 809.311787,280.55038 C807.800667,279.908782 806.440914,278.957376 805.320342,277.757605 C802.169202,274.76711 799.277567,271.529468 796.385932,268.304183 L793.444867,265.004753 C791.244422,262.707398 789.297247,260.180213 787.636882,257.46673 C787.389734,257.021863 787.1673,256.564639 786.944867,256.107414 C785.545909,253.137622 784.808082,249.899615 784.782319,246.61692 C784.733051,245.616574 784.867066,244.615649 785.177757,243.663498 C785.788488,242.264479 786.740179,241.040876 787.945817,240.104563 C790.267868,237.895792 793.036302,236.210292 796.064639,235.161597 C796.537868,234.96786 797.056303,234.91216 797.559886,235.000951 C798.091555,235.200044 798.560699,235.536975 798.919202,235.977186 C800.909826,237.779444 802.464828,240.010534 803.46673,242.501901 C803.589022,243.025502 803.77581,243.531905 804.022814,244.009506 C804.251196,244.350482 804.525662,244.658217 804.838403,244.923954 L809.534221,249.347909 C811.054183,250.793726 812.771863,252.326046 814.872624,252.424905 C815.845008,252.470397 816.704874,252.680741 817.370341,253.114941 C817.430844,252.946454 817.492125,252.778227 817.554183,252.610266 C821.10076,253.685361 824.758555,250.114068 828.354563,251.003802 C829.173693,251.279134 829.978004,251.596734 830.764259,251.955323 C835.324144,253.660646 840.946768,250.558935 845.012357,253.191065 C846.157061,254.119068 847.242519,255.117855 848.262357,256.181559 C849.506259,257.148302 850.90065,257.903944 852.389734,258.418251 C863.022783,262.47776 874.819965,262.229492 885.272814,257.726236 C886.277748,257.156265 887.417096,256.866094 888.572243,256.885932 C889.429273,257.053457 890.24171,257.398637 890.957224,257.89924 C895.387756,260.508791 900.112547,262.582887 905.032319,264.077947 C909.147338,265.338403 911.643536,270.380228 912.792776,274.618821 C913.127938,276.070452 913.310173,277.553188 913.336502,279.042776 C913.628702,284.752845 916.511876,291.45852 913.476941,296.25253 C913.40301,297.07387 913.286135,297.89196 913.126426,298.703422 L912.113118,305.771863 L911.09981,312.889734 L907.18251,340.236692 L906.206274,347.008555 L904.859316,356.461977 C904.78759,357.247292 904.587197,358.015464 904.26616,358.735741 C903.436561,360.098842 901.980311,360.956824 900.385932,361.021863 C898.821032,361.070526 897.258992,360.85752 895.764259,360.391635 L884.704373,357.598859 C884.22132,357.510137 883.762372,357.320663 883.357414,357.042776 C882.663566,356.367759 882.385233,355.372366 882.628327,354.435361 C882.788973,353.496198 883.196768,352.618821 883.345057,351.679658 C883.61692,349.85076 882.838403,347.972433 883.122624,346.155894 C883.378003,344.991856 883.793894,343.868951 884.358365,342.819392 C887.29424,336.331107 886.556587,328.990317 886.748555,321.797437 Z" id="Combined-Shape" fill="#A86FE5" fill-rule="nonzero"></path>
            <path d="M800.117871,239.363118 C799.129278,241.340304 796.756654,242.279468 794.927757,243.539924 L788.662548,247.840304 C787.816856,248.594351 786.703802,248.977241 785.573194,248.903042 C784.543193,248.522684 783.710093,247.743044 783.262357,246.740494 C783.262357,246.443916 783.262357,246.147338 783.262357,245.85076 C783.213089,244.850415 783.347104,243.849489 783.657795,242.897338 C784.275215,241.502308 785.225729,240.280218 786.425856,239.338403 C788.747906,237.129632 791.51634,235.444132 794.544677,234.395437 C795.019264,234.206517 795.537475,234.155124 796.039924,234.247148 C796.228151,234.297382 796.407418,234.376593 796.571293,234.481939 C797.02405,234.958433 797.403076,235.499898 797.695817,236.088403 C798.165399,237.089354 800.636882,238.34981 800.117871,239.363118 Z" id="Path" fill="#000000" fill-rule="nonzero" opacity="0.1"></path>
            <path d="M889.758555,425.428707 C889.690964,437.859045 888.811717,450.271704 887.126426,462.587452 C886.879278,464.564639 886.607414,466.554183 886.471483,468.556084 C886.063688,474.314639 886.718631,480.122624 886.187262,485.856464 C885.890684,488.945817 885.260456,492.035171 884.704373,495.062738 C882.287179,508.571231 881.585494,522.330899 882.61597,536.015209 C884.308935,558.789924 879.094106,581.576996 881.454373,604.289924 C881.746855,608.706087 881.506211,613.141405 880.737643,617.5 C880.290937,620.207406 879.650832,622.879328 878.822243,625.495247 C877.001584,631.690431 875.189163,637.869138 873.384981,644.031369 C873.167101,644.964852 872.745071,645.838455 872.14924,646.589354 C870.878424,647.700996 869.187514,648.206015 867.515209,647.973384 C860.384981,647.738593 853.687262,644.673954 847.211977,641.658745 C846.463408,641.373062 845.772645,640.954418 845.173004,640.423004 C843.826046,639.026616 843.937262,636.814639 843.344106,634.985741 C842.750951,633.156844 841.132129,631.414449 840.217681,629.511407 C839.47725,627.72353 839.022707,625.830296 838.870722,623.901141 C838.046895,617.565906 837.486692,611.214195 837.190114,604.846008 C836.73289,595.874525 842.652091,587.619772 844.604563,578.895437 C848.373574,561.743346 845.185361,543.355513 851.771863,527.068441 C853.835551,521.940114 850.8327,515.711977 850.536122,510.175856 C850.436263,506.603787 849.972522,503.051202 849.152091,499.573194 C847.91635,494.914449 845.321293,490.552281 845.135932,485.73289 C844.987643,482.248099 846.112167,478.84981 846.705323,475.402091 C847.463969,470.349676 847.393011,465.207316 846.495247,460.177757 C845.840304,456.025665 844.826996,451.873574 843.826046,447.820342 L843.603612,448.277567 C840.59275,454.162248 838.003539,460.253293 835.855513,466.504753 C834.879278,469.532319 834.001901,472.609316 832.76616,475.562738 C831.752852,478.034221 830.51711,480.28327 829.293726,482.606464 C824.903925,490.809309 821.088676,499.306908 817.875475,508.038023 C816.343156,512.313688 815.008555,516.688213 813.661597,520.976236 C810.621673,530.862167 807.573511,540.748099 804.51711,550.63403 C802.107414,558.431559 799.326996,565.969582 796.9173,573.754753 C793.494297,584.876426 790.071293,595.89924 786.092205,606.761407 C782.310837,617.092205 777.961027,627.769011 779.28327,638.680608 C775.879764,640.280159 772.141829,641.038764 768.38403,640.892586 C762.014652,640.323782 755.76652,638.803403 749.847909,636.382129 C747.418229,635.703008 745.213132,634.389333 743.459125,632.576046 C740.703422,629.227186 741.395437,624.321293 742.223384,620.070342 C742.532088,618.146735 743.033012,616.258954 743.718631,614.435361 C744.645437,612.14924 746.128327,610.134981 747.141635,607.898289 C749.094106,603.573194 749.217681,598.692015 749.98384,594.008555 C750.75,589.325095 752.455323,584.394487 756.459125,581.836502 C757.126426,573.618821 760.524715,565.487643 762.390684,557.455323 C763.79943,551.363118 764.269011,545.097909 765.368821,538.919202 C766.468631,532.740494 768.285171,526.561787 772.01711,521.618821 C771.720907,516.459632 772.881356,511.321112 775.36597,506.789924 C775.970026,505.796544 776.46316,504.73983 776.836502,503.638783 C777.072538,502.566197 777.209049,501.47411 777.244297,500.376426 C777.645615,496.086475 779.477986,492.05613 782.446768,488.93346 C781.211027,484.410646 782.941065,479.714829 784.473384,475.340304 C786.428973,469.760644 787.309525,463.860943 787.068441,457.953422 C786.880669,456.303315 786.964155,454.633603 787.315589,453.010456 C787.661597,451.774715 788.341255,450.724335 788.724335,449.525665 C789.089944,448.075111 789.276693,446.58527 789.280418,445.089354 C789.774715,438.41635 792.468631,432.114068 795.459125,426.145437 C797.226236,422.660646 795.718631,417.927757 796.101711,414.035171 C796.744297,407.584601 797.448669,400.923954 800.636882,395.288973 C801.285758,394.264776 801.875751,393.204439 802.403992,392.113118 C803.053777,390.544653 803.401754,388.867658 803.429658,387.170152 C803.540875,384.352662 803.936312,381.992395 802.923004,379.372624 C809.534221,373.861217 818.56749,372.328897 827.155894,372.019962 C835.744297,371.711027 844.456274,372.427757 852.871673,370.586502 C855.343156,370.042776 857.814639,369.264259 860.422053,368.893536 C866.353612,368.028517 872.346958,369.387833 878.192015,370.722433 C877.784221,374.429658 879.143536,377.988593 880.601711,381.436312 C886.516849,395.35573 889.628511,410.305144 889.758555,425.428707 L889.758555,425.428707 Z" id="Path" fill="#33313F" fill-rule="nonzero"></path>
            <path d="M860.656844,428.221483 L846.470532,460.153042 C845.815589,456.000951 844.802281,451.848859 843.801331,447.795627 L843.578897,448.252852 L843.640684,447.585551 L851.376426,430.557034 L860.656844,428.221483 Z" id="Path" fill="#000000" fill-rule="nonzero" opacity="0.1"></path>
            <path d="M903.215779,361.51616 C902.389987,362.11669 901.415672,362.479922 900.398289,362.56654 C898.829287,362.616119 897.263033,362.403109 895.764259,361.936312 L884.704373,359.131179 C884.354457,359.055065 884.014454,358.938967 883.691065,358.785171 C883.876426,356.8327 884.247148,354.596008 885.309886,353.842205 C886.86692,352.779468 891.562738,354.20057 893.354563,354.435361 C896.419202,354.867871 899.471483,355.362167 902.511407,355.942966 C902.953709,357.768541 903.189975,359.637945 903.215779,361.51616 Z" id="Path" fill="#000000" fill-rule="nonzero" opacity="0.1"></path>
            <path d="M828.453422,181.542776 C827.637833,184.125475 828.910646,186.980038 828.329848,189.636882 C827.687262,192.553232 824.956274,194.579848 824.177757,197.508555 C822.942015,201.969582 826.723384,206.035171 829.479087,209.742395 C839.735741,223.496198 838.388783,242.551331 834.879278,259.357414 C832.061241,272.832457 828.155874,286.056979 823.201521,298.901141 C821.669202,302.880228 819.951521,306.945817 816.923954,309.936312 C822.608365,308.305133 828.638783,306.661597 834.347909,308.243346 C841.564639,310.245247 847.792776,317.251901 855.096008,315.657795 C859.507605,314.669202 862.584601,310.714829 866.551331,308.614068 C873.965779,304.622624 882.887833,307.131179 891.1673,308.403992 C892.947615,308.836153 894.815146,308.741703 896.542776,308.132129 C897.86228,307.422504 898.983663,306.39457 899.805133,305.141635 C903.489504,300.406354 905.6947,294.68918 906.144487,288.706274 C906.549782,282.676903 904.339012,276.765006 900.076996,272.480989 C898.334601,270.825095 896.23384,269.490494 894.886882,267.538023 C893.568525,265.261212 892.865809,262.680326 892.847909,260.04943 C891.859316,246.456274 895.171103,232.591255 891.772814,219.442966 C890.537072,214.759506 888.510456,210.273764 887.96673,205.46673 C887.287072,199.510456 888.918251,193.109316 886.545627,187.647338 C884.6673,183.322243 880.552281,180.23289 876.128327,178.663498 C871.631705,177.214456 866.959065,176.383025 862.238593,176.192015 C855.46673,175.598859 831.28327,172.707224 828.453422,181.542776 Z" id="Path" fill="#1D0537" fill-rule="nonzero"></path>
            <g id="Group" opacity="0.1" transform="translate(816.825095, 177.946768)" fill="#000000" fill-rule="nonzero">
                <path d="M18.0418251,81.4106464 C15.2319303,94.8285262 11.3474172,107.998679 6.42585551,120.793726 C7.27851711,119.10076 8.00760456,117.321293 8.68726236,115.554183 C13.6409999,102.709812 17.5463515,89.4853402 20.365019,76.0104563 C23.8745247,59.21673 25.2214829,40.1739544 14.9648289,26.3954373 C12.493346,23.1207224 9.31749049,19.5617871 9.44106464,15.6939163 C8.52276686,16.8613729 7.81215051,18.1781032 7.34030418,19.5865019 C6.10456274,24.0475285 9.88593156,28.1131179 12.641635,31.8203422 C22.9106464,45.5494297 21.5636882,64.6045627 18.0418251,81.4106464 Z" id="Path"></path>
                <path d="M11.6530418,10.4296578 C12.6376484,9.19336185 13.3759577,7.77966737 13.8279468,6.26520913 C14.0188566,4.42945933 13.9690047,2.57663037 13.6796578,0.753802281 C12.7262846,1.47401051 12.0115527,2.46430169 11.628327,3.5960076 C10.9363118,5.78326996 11.7395437,8.18060837 11.6530418,10.4296578 Z" id="Path"></path>
                <path d="M85.3032319,121.745247 C84.4774876,123.002204 83.3521553,124.034113 82.0285171,124.748099 C80.3052338,125.358064 78.4415302,125.452537 76.6653992,125.019962 C68.3859316,123.784221 59.365019,121.226236 52.0494297,125.230038 C48.0826996,127.380228 44.993346,131.285171 40.5941065,132.261407 C33.2785171,133.892586 27.0009506,126.898289 19.8336502,124.846958 C14.730038,123.425856 9.34220532,124.59981 4.17680608,126.0827 C3.15741419,128.269556 1.7790408,130.270286 0.0988593156,132.001901 C5.78326996,130.370722 11.8136882,128.727186 17.5228137,130.308935 C24.7395437,132.310837 30.9676806,139.31749 38.2709125,137.723384 C42.6701521,136.734791 45.7595057,132.780418 49.7262357,130.679658 C57.1406844,126.688213 66.0627376,129.196768 74.3422053,130.469582 C76.1225203,130.901743 77.9900511,130.807293 79.7176806,130.197719 C81.0371847,129.488094 82.1585681,128.460159 82.980038,127.207224 C85.2077785,124.245754 86.9359327,120.93972 88.0960076,117.420152 C87.2685331,118.92608 86.3352652,120.371406 85.3032319,121.745247 L85.3032319,121.745247 Z" id="Path"></path>
            </g>
        </g>
    </g>
</svg>